<svg version="1.1" id="Layer_1" style="display: none;" xmlns="http://www.w3.org/2000/svg">
	<symbol id="telegram" viewBox="0 0 58 58">
		<path fill-rule="evenodd" clip-rule="evenodd" d="M58 29C58 45.0153 45.0153 58 29 58C12.9848 58 0 45.0153 0 29C0 12.9848 12.9848 0 29 0C45.0153 0 58 12.9848 58 29ZM30.0392 21.4093C27.2189 22.5813 21.5808 25.0101 13.1273 28.6931C11.7547 29.2393 11.0345 29.7733 10.9693 30.2953C10.8581 31.1798 11.9649 31.5278 13.4681 31.9991C13.6735 32.0643 13.8862 32.1296 14.1037 32.2021C15.5851 32.683 17.5764 33.2461 18.6108 33.2678C19.5508 33.2872 20.5997 32.9005 21.7573 32.1078C29.6549 26.7743 33.7318 24.0797 33.988 24.0217C34.1693 23.9806 34.4206 23.9274 34.5898 24.0797C34.7589 24.2295 34.742 24.5147 34.7251 24.592C34.6139 25.0584 30.2784 29.0918 28.0309 31.1798C27.3301 31.8299 26.8347 32.2915 26.7332 32.3978C26.506 32.6323 26.274 32.857 26.0517 33.0721C24.6742 34.3964 23.6447 35.3921 26.1097 37.0161C27.2938 37.7967 28.2412 38.4419 29.1861 39.0848C30.218 39.788 31.2475 40.4888 32.5815 41.3637C32.9198 41.586 33.2437 41.8156 33.5603 42.0403C34.7613 42.8983 35.8416 43.6667 37.1756 43.5459C37.9489 43.4734 38.7512 42.746 39.1572 40.5734C40.1167 35.4356 42.0065 24.3093 42.4439 19.7224C42.4705 19.3416 42.4543 18.959 42.3956 18.5818C42.3604 18.2771 42.2121 17.9968 41.9799 17.7963C41.6343 17.5136 41.0978 17.4532 40.8562 17.458C39.7663 17.4773 38.0939 18.0598 30.0392 21.4093V21.4093Z" fill="currentcolor"/>
	</symbol>

	<symbol id="github" viewBox="0 0 72 58">
		<g clip-path="url(#clip0_2_59)">
			<path d="M8.73069 -0.05713C10.6771 -0.085608 15.1984 0.567936 22.7473 5.56516C26.8615 4.54813 31.2391 4.04625 35.6242 4.04625C40.449 4.04625 45.3247 4.65224 49.8717 5.88595C60.7097 -1.42709 65.4936 0.0715719 65.4936 0.0715719C68.6166 7.79618 66.6867 13.5153 66.1001 14.9356C69.7708 18.854 72.0117 23.8576 72.0117 29.99C72.0117 34.6197 71.479 38.7722 70.1774 42.3819C70.1052 42.6605 70.1286 42.5984 70.007 42.8369C69.7202 43.5841 69.4014 44.3095 69.0431 45.01C68.9203 45.2621 68.8085 45.4487 68.8085 45.4487C65.1496 52.1945 57.9368 56.5521 45.1035 57.9203L25.6939 57.942C12.0077 56.5997 5.44038 52.2291 2.41408 45.4378L2.22168 44.9955C1.93493 44.3095 1.68494 43.5957 1.0012 41.1929C0.317511 38.7901 0.0116433 34.6289 0.0116433 29.9882C0.0116433 23.3324 2.53903 18.0067 6.64338 13.955C5.92615 11.6652 4.96803 6.57987 7.59998 0.0697159C7.59998 0.0697159 7.969 -0.045994 8.73062 -0.057188L8.73069 -0.05713ZM24.0264 24.3677C20.8661 24.3609 18.159 24.8976 16.1266 27.0066V27.0084C13.5834 29.6498 12.0951 32.8389 12.0951 36.2756C12.0951 52.3217 22.5291 52.7582 35.3987 52.7582C48.2706 52.7582 58.7024 50.5347 58.7024 36.2756C58.7024 32.8616 57.2358 29.6916 54.724 27.061C50.5341 22.6768 43.4437 24.9984 35.3987 24.9984C31.2691 24.9978 27.3905 24.3749 24.0263 24.3676L24.0264 24.3677ZM47.9989 29.0928C50.6768 29.0928 52.8477 32.6738 52.8477 37.0931C52.8477 41.5131 50.6769 45.0952 47.9989 45.0952C45.3211 45.0952 43.1502 41.5131 43.1502 37.0931C43.1502 32.6745 45.321 29.096 47.9989 29.0928ZM21.9833 29.0928C24.6611 29.0928 26.832 32.6738 26.832 37.0931C26.832 41.5131 24.6612 45.0952 21.9833 45.0952C19.3054 45.0952 17.1345 41.5131 17.1345 37.0931C17.1345 32.6745 19.3053 29.096 21.9833 29.0928Z" fill="currentcolor"/>
		</g>
		<defs>
			<clipPath id="clip0_2_59">
				<rect width="72" height="58" fill="white" transform="matrix(-1 0 0 1 72 0)"/>
			</clipPath>
		</defs>
	</symbol>
</svg>